<svg width="820" height="828" viewBox="0 0 820 828" fill="none" xmlns="http://www.w3.org/2000/svg">
<g filter="url(#filter0_d_85_154)">
<path d="M805 347.679C805 302.284 794.654 257.333 774.552 215.393C754.45 173.454 724.986 135.346 687.843 103.247C650.699 71.1478 606.604 45.6852 558.073 28.3132C509.543 10.9412 457.529 2 405 2C352.471 2 300.457 10.9413 251.927 28.3133C203.396 45.6853 159.301 71.1478 122.157 103.247C85.0138 135.346 55.5501 173.454 35.4482 215.393C15.3463 257.333 5 302.284 5 347.679H85C85 311.363 93.277 275.402 109.359 241.851C125.44 208.299 149.011 177.813 178.726 152.133C208.441 126.454 243.717 106.084 282.541 92.1864C321.365 78.2888 362.977 71.1358 405 71.1358C447.023 71.1358 488.634 78.2888 527.459 92.1864C566.283 106.084 601.559 126.454 631.274 152.133C660.989 177.813 684.56 208.299 700.641 241.851C716.723 275.402 725 311.363 725 347.679H805Z" fill="white"/>
<rect x="5" y="347.679" width="800" height="60.4938" fill="white"/>
<rect width="19.1422" height="91.1472" transform="matrix(-0.854207 -0.519933 0.63176 -0.775164 246.142 258.827)" fill="white"/>
<rect width="18.2294" height="62.212" transform="matrix(-0.63176 0.775164 -0.854207 -0.519933 257.659 244.696)" fill="white"/>
<rect width="18.2294" height="52.6409" transform="matrix(-0.63176 0.775164 -0.854207 -0.519933 279.54 217.848)" fill="white"/>
<rect width="22.1742" height="106.286" transform="matrix(0.842182 0.539194 -0.650843 0.759212 371.175 24.4691)" fill="white"/>
<rect width="21.2571" height="72.0663" transform="matrix(0.650843 -0.759212 0.842182 0.539194 357.34 40.6078)" fill="white"/>
<rect width="21.2571" height="60.9791" transform="matrix(0.650843 -0.759212 0.842182 0.539194 331.054 71.2712)" fill="white"/>
<rect width="13.9215" height="71.6303" transform="matrix(-0.687672 0.726021 -0.816388 -0.577504 476.808 159.89)" fill="white"/>
<rect width="14.3261" height="45.245" transform="matrix(0.816388 0.577504 -0.687672 0.726021 465.112 151.617)" fill="white"/>
<rect width="14.3261" height="38.2842" transform="matrix(0.816388 0.577504 -0.687672 0.726021 442.891 135.898)" fill="white"/>
<rect width="15.0564" height="65.6411" transform="matrix(-0.988588 0.150642 -0.199917 -0.979813 636.498 297.057)" fill="white"/>
<rect width="13.1282" height="48.9332" transform="matrix(0.199917 0.979813 -0.988588 0.150642 633.873 284.194)" fill="white"/>
<rect width="13.1282" height="41.405" transform="matrix(0.199917 0.979813 -0.988588 0.150642 628.886 259.754)" fill="white"/>
<rect width="17.4137" height="95.4963" transform="matrix(0.479278 -0.877663 0.925954 0.377637 463 340.313)" fill="white"/>
<rect width="19.0993" height="56.5945" transform="matrix(-0.925954 -0.377637 0.479278 -0.877663 480.685 347.525)" fill="white"/>
<rect width="19.0993" height="47.8877" transform="matrix(-0.925954 -0.377637 0.479278 -0.877663 514.287 361.229)" fill="white"/>
<rect width="17.7018" height="98.1557" transform="matrix(0.429269 0.903177 -0.942391 0.334514 246.501 88.4198)" fill="white"/>
<rect width="19.6311" height="57.5308" transform="matrix(0.942391 -0.334514 0.429269 0.903177 228.001 94.9867)" fill="white"/>
<rect width="19.6311" height="57.5308" transform="matrix(0.942391 -0.334514 0.429269 0.903177 154 121.254)" fill="white"/>
<rect width="19.6311" height="48.6799" transform="matrix(0.942391 -0.334514 0.429269 0.903177 192.85 107.464)" fill="white"/>
<rect width="10.6456" height="55.909" transform="matrix(0.630909 -0.775857 0.854724 0.519083 238 297.609)" fill="white"/>
<rect width="11.1818" height="34.5981" transform="matrix(-0.854724 -0.519083 0.630909 -0.775857 247.557 303.413)" fill="white"/>
<rect width="11.1818" height="34.5981" transform="matrix(-0.854724 -0.519083 0.630909 -0.775857 285.787 326.63)" fill="white"/>
<rect width="11.1818" height="29.2753" transform="matrix(-0.854724 -0.519083 0.630909 -0.775857 265.716 314.441)" fill="white"/>
<rect width="21.2796" height="108.003" transform="matrix(-0.721901 0.691996 -0.788842 -0.614596 577.123 251.588)" fill="white"/>
<rect width="21.6005" height="69.1587" transform="matrix(0.788842 0.614596 -0.721901 0.691996 560.083 238.312)" fill="white"/>
<rect width="21.6005" height="69.1587" transform="matrix(0.788842 0.614596 -0.721901 0.691996 491.926 185.21)" fill="white"/>
<rect width="21.6005" height="58.5189" transform="matrix(0.788842 0.614596 -0.721901 0.691996 527.708 213.089)" fill="white"/>
<rect x="94" y="190.395" width="17.284" height="65" transform="rotate(-90 94 190.395)" fill="white"/>
<rect x="94" y="259.531" width="17.284" height="65" transform="rotate(-90 94 259.531)" fill="white"/>
<rect x="94" y="173.111" width="20" height="86.4198" fill="white"/>
<rect x="139" y="173.111" width="20" height="86.4198" fill="white"/>
<rect width="18.5281" height="61.2731" transform="matrix(0.716003 0.698098 -0.793865 0.608094 400.674 170.404)" fill="white"/>
<rect width="18.5281" height="61.2731" transform="matrix(0.716003 0.698098 -0.793865 0.608094 347.609 118.667)" fill="white"/>
<rect width="18.8533" height="92.6403" transform="matrix(-0.793865 0.608094 -0.716003 -0.698098 413.94 183.339)" fill="white"/>
<rect width="18.8533" height="92.6403" transform="matrix(-0.793865 0.608094 -0.716003 -0.698098 380.265 209.134)" fill="white"/>
<rect width="18.9251" height="59.9777" transform="matrix(0.809554 -0.587046 0.696612 0.717448 689.284 175.579)" fill="white"/>
<rect width="18.9251" height="59.9777" transform="matrix(0.809554 -0.587046 0.696612 0.717448 628 220.019)" fill="white"/>
<rect width="18.4547" height="94.6255" transform="matrix(0.696612 0.717448 -0.809554 0.587046 704.604 164.469)" fill="white"/>
<rect width="18.4547" height="94.6255" transform="matrix(0.696612 0.717448 -0.809554 0.587046 733.53 194.26)" fill="white"/>
<rect width="10.1686" height="28.5602" transform="matrix(-0.999993 0.00371311 -0.00497175 -0.999988 565.354 354.931)" fill="white"/>
<rect width="10.1686" height="28.5602" transform="matrix(-0.999993 0.00371311 -0.00497175 -0.999988 606.028 354.78)" fill="white"/>
<rect width="8.78776" height="50.8432" transform="matrix(-0.00497175 -0.999988 0.999993 -0.00371311 555.186 354.968)" fill="white"/>
<rect width="8.78776" height="50.8432" transform="matrix(-0.00497175 -0.999988 0.999993 -0.00371311 555.087 335.196)" fill="white"/>
<rect width="18.3906" height="61.7091" transform="matrix(0.679018 -0.734122 0.82278 0.568359 330.95 304.143)" fill="white"/>
<rect width="18.3906" height="61.7091" transform="matrix(0.679018 -0.734122 0.82278 0.568359 281 358.146)" fill="white"/>
<rect width="18.9874" height="91.9528" transform="matrix(0.82278 0.568359 -0.679018 0.734122 343.438 290.642)" fill="white"/>
<rect width="18.9874" height="91.9528" transform="matrix(0.82278 0.568359 -0.679018 0.734122 378.588 314.923)" fill="white"/>
<rect width="19.7016" height="88.1165" transform="matrix(0.953924 -0.300049 0.388145 0.921598 106 302.893)" fill="white"/>
<rect width="19.7016" height="88.1165" transform="matrix(0.953924 -0.300049 0.388145 0.921598 178.356 280.134)" fill="white"/>
<rect width="19.2031" height="63.5782" transform="matrix(0.669461 -0.689485 0.84342 0.611604 112.239 310.127)" fill="white"/>
<rect width="19.2031" height="63.5782" transform="matrix(1.02567 0.156294 -0.191188 0.937032 177.417 280.429)" fill="white"/>
<rect width="19.7016" height="17.6233" transform="matrix(0.953924 -0.300049 0.388145 0.921598 159.151 333.077)" fill="white"/>
<rect width="18.3261" height="95.248" transform="matrix(0.660679 -0.750669 0.835642 0.549274 349 285.634)" fill="white"/>
<rect width="18.3261" height="95.248" transform="matrix(0.660679 -0.750669 0.835642 0.549274 395.615 232.671)" fill="white"/>
<rect width="18.5097" height="66.0497" transform="matrix(0.136483 -0.926301 1.05132 0.115687 358.775 288.803)" fill="white"/>
<rect width="18.5097" height="66.0497" transform="matrix(0.996501 -0.361004 0.409728 0.844669 395.009 233.358)" fill="white"/>
<rect width="18.3261" height="19.0496" transform="matrix(0.660679 -0.750669 0.835642 0.549274 412.597 286.178)" fill="white"/>
<rect width="19.7612" height="87.7822" transform="matrix(-0.963473 0.267807 -0.348808 -0.937194 737.96 365.997)" fill="white"/>
<rect width="19.7612" height="87.7822" transform="matrix(-0.963473 0.267807 -0.348808 -0.937194 664.658 386.372)" fill="white"/>
<rect width="19.2337" height="63.4648" transform="matrix(-0.69808 0.666021 -0.817474 -0.639907 732.042 358.564)" fill="white"/>
<rect width="19.2337" height="63.4648" transform="matrix(-1.01647 -0.189444 0.232524 -0.931765 665.611 386.108)" fill="white"/>
<rect width="19.7612" height="17.5564" transform="matrix(-0.963473 0.267807 -0.348808 -0.937194 686.17 334.095)" fill="white"/>
<rect width="18.9416" height="92.1889" transform="matrix(-0.813083 -0.582147 0.692034 -0.721865 491.695 160.917)" fill="white"/>
<rect width="18.9416" height="92.1889" transform="matrix(-0.813083 -0.582147 0.692034 -0.721865 432.401 118.464)" fill="white"/>
<rect width="18.8169" height="64.9775" transform="matrix(-1.04786 -0.153835 0.180424 -0.917847 495.765 152.608)" fill="white"/>
<rect width="18.8169" height="64.9775" transform="matrix(-0.369771 -0.861155 1.01 -0.323891 433.171 119.015)" fill="white"/>
<rect width="18.9416" height="18.4378" transform="matrix(-0.813083 -0.582147 0.692034 -0.721865 494.97 106.026)" fill="white"/>
<rect width="18.8611" height="92.6005" transform="matrix(0.795599 0.605824 -0.713933 0.700214 577.11 114.346)" fill="white"/>
<rect width="18.8611" height="92.6005" transform="matrix(0.795599 0.605824 -0.713933 0.700214 634.883 158.338)" fill="white"/>
<rect width="18.7764" height="65.1208" transform="matrix(1.04421 0.181697 -0.212176 0.910672 572.75 122.544)" fill="white"/>
<rect width="18.7764" height="65.1208" transform="matrix(0.340023 0.872352 -1.01869 0.29654 634.133 157.766)" fill="white"/>
<rect width="18.8611" height="18.5201" transform="matrix(0.795599 0.605824 -0.713933 0.700214 571.905 169.125)" fill="white"/>
<rect x="176" y="190.395" width="20" height="17.284" rx="8.64198" fill="white"/>
<rect x="184" y="250.889" width="20" height="17.284" rx="8.64198" fill="white"/>
<rect x="294" y="265.58" width="20" height="17.284" rx="8.64198" fill="white"/>
<rect x="271" y="148.049" width="20" height="17.284" rx="8.64198" fill="white"/>
<rect x="370" y="112.617" width="20" height="17.284" rx="8.64198" fill="white"/>
<rect x="425" y="201.63" width="20" height="17.284" rx="8.64198" fill="white"/>
<rect x="453" y="119.531" width="20" height="17.284" rx="8.64198" fill="white"/>
<rect x="435" y="300.148" width="20" height="17.284" rx="8.64198" fill="white"/>
<rect x="541" y="298.42" width="20" height="17.284" rx="8.64198" fill="white"/>
<rect x="655" y="288.049" width="20" height="17.284" rx="8.64198" fill="white"/>
<rect x="584" y="240.519" width="20" height="17.284" rx="8.64198" fill="white"/>
<rect x="596" y="148.049" width="20" height="17.284" rx="8.64198" fill="white"/>
<rect x="501" y="151.506" width="20" height="17.284" rx="8.64198" fill="white"/>
<rect x="364" y="242.247" width="20" height="17.284" rx="8.64198" fill="white"/>
<rect x="316" y="207.679" width="20" height="17.284" rx="8.64198" fill="white"/>
<rect x="261" y="91.8766" width="20" height="17.284" rx="8.64198" fill="white"/>
<rect x="240" y="338.173" width="20" height="17.284" rx="8.64198" fill="white"/>
</g>
<g filter="url(#filter1_d_85_154)">
<rect x="5" y="608" width="800" height="80.7815" fill="white"/>
<rect x="5" y="741.219" width="800" height="80.7815" fill="white"/>
<rect x="4" y="608" width="57" height="214" fill="white"/>
<rect x="759" y="608" width="57" height="214" fill="white"/>
</g>
<path d="M90 432H176V447.6H106.8V494H174.8V509.6H106.8V572H90V432Z" fill="white"/>
<path d="M199.661 560.8C199.661 556.933 200.994 553.667 203.661 551C206.461 548.2 209.794 546.8 213.661 546.8C217.528 546.8 220.794 548.2 223.461 551C226.261 553.667 227.661 556.933 227.661 560.8C227.661 564.667 226.261 568 223.461 570.8C220.794 573.467 217.528 574.8 213.661 574.8C209.794 574.8 206.461 573.467 203.661 570.8C200.994 568 199.661 564.667 199.661 560.8Z" fill="white"/>
<path d="M245.922 486.4C245.922 468.267 250.255 454.2 258.922 444.2C267.589 434.2 279.655 429.2 295.122 429.2C310.589 429.2 322.655 434.2 331.322 444.2C339.989 454.2 344.322 468.267 344.322 486.4V517.6C344.322 536.267 339.989 550.467 331.322 560.2C322.655 569.933 310.589 574.8 295.122 574.8C279.655 574.8 267.589 569.933 258.922 560.2C250.255 550.467 245.922 536.267 245.922 517.6V486.4ZM295.122 559.2C305.922 559.2 313.989 555.533 319.322 548.2C324.789 540.733 327.522 530.133 327.522 516.4V487.6C327.522 474.8 324.789 464.467 319.322 456.6C313.989 448.733 305.922 444.8 295.122 444.8C284.322 444.8 276.189 448.733 270.722 456.6C265.389 464.467 262.722 474.8 262.722 487.6V516.4C262.722 530.133 265.389 540.733 270.722 548.2C276.189 555.533 284.322 559.2 295.122 559.2Z" fill="white"/>
<path d="M362.583 560.8C362.583 556.933 363.916 553.667 366.583 551C369.383 548.2 372.716 546.8 376.583 546.8C380.449 546.8 383.716 548.2 386.383 551C389.183 553.667 390.583 556.933 390.583 560.8C390.583 564.667 389.183 568 386.383 570.8C383.716 573.467 380.449 574.8 376.583 574.8C372.716 574.8 369.383 573.467 366.583 570.8C363.916 568 362.583 564.667 362.583 560.8Z" fill="white"/>
<path d="M406.044 432H438.044L456.844 564.8H459.244L478.044 432H510.044V572H494.444V439.2H492.044L473.244 572H442.844L424.044 439.2H421.644V572H406.044V432Z" fill="white"/>
<path d="M525.505 560.8C525.505 556.933 526.838 553.667 529.505 551C532.305 548.2 535.638 546.8 539.505 546.8C543.371 546.8 546.638 548.2 549.305 551C552.105 553.667 553.505 556.933 553.505 560.8C553.505 564.667 552.105 568 549.305 570.8C546.638 573.467 543.371 574.8 539.505 574.8C535.638 574.8 532.305 573.467 529.505 570.8C526.838 568 525.505 564.667 525.505 560.8Z" fill="white"/>
<path d="M578.566 432H663.366V447.6H595.366V494H662.166V509.6H595.366V556.4H664.566V572H578.566V432Z" fill="white"/>
<path d="M688.427 560.8C688.427 556.933 689.76 553.667 692.427 551C695.227 548.2 698.56 546.8 702.427 546.8C706.293 546.8 709.56 548.2 712.227 551C715.027 553.667 716.427 556.933 716.427 560.8C716.427 564.667 715.027 568 712.227 570.8C709.56 573.467 706.293 574.8 702.427 574.8C698.56 574.8 695.227 573.467 692.427 570.8C689.76 568 688.427 564.667 688.427 560.8Z" fill="white"/>
<defs>
<filter id="filter0_d_85_154" x="1" y="0" width="808" height="414.173" filterUnits="userSpaceOnUse" color-interpolation-filters="sRGB">
<feFlood flood-opacity="0" result="BackgroundImageFix"/>
<feColorMatrix in="SourceAlpha" type="matrix" values="0 0 0 0 0 0 0 0 0 0 0 0 0 0 0 0 0 0 127 0" result="hardAlpha"/>
<feOffset dy="2"/>
<feGaussianBlur stdDeviation="2"/>
<feComposite in2="hardAlpha" operator="out"/>
<feColorMatrix type="matrix" values="0 0 0 0 0 0 0 0 0 0 0 0 0 0 0 0 0 0 0.25 0"/>
<feBlend mode="normal" in2="BackgroundImageFix" result="effect1_dropShadow_85_154"/>
<feBlend mode="normal" in="SourceGraphic" in2="effect1_dropShadow_85_154" result="shape"/>
</filter>
<filter id="filter1_d_85_154" x="0" y="606" width="820" height="222" filterUnits="userSpaceOnUse" color-interpolation-filters="sRGB">
<feFlood flood-opacity="0" result="BackgroundImageFix"/>
<feColorMatrix in="SourceAlpha" type="matrix" values="0 0 0 0 0 0 0 0 0 0 0 0 0 0 0 0 0 0 127 0" result="hardAlpha"/>
<feOffset dy="2"/>
<feGaussianBlur stdDeviation="2"/>
<feComposite in2="hardAlpha" operator="out"/>
<feColorMatrix type="matrix" values="0 0 0 0 0 0 0 0 0 0 0 0 0 0 0 0 0 0 0.25 0"/>
<feBlend mode="normal" in2="BackgroundImageFix" result="effect1_dropShadow_85_154"/>
<feBlend mode="normal" in="SourceGraphic" in2="effect1_dropShadow_85_154" result="shape"/>
</filter>
</defs>
</svg>
