<svg width="1280" height="307" viewBox="0 0 1280 307" fill="none" xmlns="http://www.w3.org/2000/svg">
<path fill-rule="evenodd" clip-rule="evenodd" d="M0 191.875L42.6667 179.083C85.3333 166.292 170.667 140.708 256 140.708C341.333 140.708 426.667 166.292 512 172.688C597.333 179.083 682.667 166.292 768 140.708C853.333 115.125 938.667 76.75 1024 51.1667C1109.33 25.5833 1194.67 12.7917 1237.33 6.39583L1280 0V307H1237.33C1194.67 307 1109.33 307 1024 307C938.667 307 853.333 307 768 307C682.667 307 597.333 307 512 307C426.667 307 341.333 307 256 307C170.667 307 85.3333 307 42.6667 307H0V191.875Z" fill="#E32929"/>
</svg>
